<?xml version="1.0" encoding="UTF-8"?><svg id="Layer_1" xmlns="http://www.w3.org/2000/svg" viewBox="0 0 29.12 28"><defs><style>.cls-1{fill:#00df6b;}.cls-2{fill:#001632;}</style></defs><path class="cls-1" d="m12.99,21.74l-1.92,1.85c-.21.2-.5.32-.8.32s-.59-.11-.8-.32L.33,14.81c-.21-.21-.33-.48-.33-.77s.12-.57.33-.77L9.53,4.41c.21-.2.5-.32.8-.32s.59.11.8.32l1.93,1.85c.21.2.33.48.33.77s-.12.57-.33.77l-.23.21-5.44,5.23c-.21.2-.33.48-.33.77s.12.57.33.77l5.59,5.4c.11.1.19.22.25.35.06.13.09.27.09.42s-.03.29-.09.42c-.06.13-.14.25-.25.35Z"/><path class="cls-2" d="m11.82,25.84l1.91,1.84c.21.2.5.32.8.32s.59-.11.8-.32l.07-.07,13.38-12.88c.11-.1.19-.22.25-.35.06-.13.09-.27.09-.42s-.03-.28-.09-.42c-.06-.13-.14-.25-.25-.35L15.41.32c-.1-.1-.23-.18-.37-.24-.14-.05-.28-.08-.43-.08s-.3.03-.43.08c-.14.05-.26.13-.37.24l-1.91,1.84c-.21.2-.33.48-.33.77s.12.57.33.77l9.57,9.2.31.29c.11.1.19.22.25.35.06.13.09.27.09.42s-.03.28-.09.42c-.06.13-.14.25-.25.35l-9.94,9.57c-.11.1-.19.22-.25.35-.06.13-.09.27-.09.42s.03.28.09.42c.06.13.14.25.25.35Z"/></svg>